<svg width="1139" height="1139" viewBox="0 0 1139 1139" fill="none" xmlns="http://www.w3.org/2000/svg">
<path d="M569.464 0.905151C360.168 0.905151 177.279 113.98 78.5361 282.379L569.464 569.905V0.905151Z" fill="#F5CACA"/>
<path d="M1060.53 856.86C1110.11 772.471 1138.54 674.168 1138.54 569.229C1138.54 464.416 1110.18 366.226 1060.71 281.905L569.536 569.435L1060.53 856.86Z" fill="#F5CACA"/>
<path d="M1060.46 282.379C961.722 113.98 778.832 0.905151 569.536 0.905151V569.905L1060.46 282.379Z" fill="#F5CACA"/>
<path d="M569.536 1138.91C778.781 1138.91 961.643 1025.89 1060.46 857.534L569.536 569.905V1138.91Z" fill="#F5CACA"/>
<path d="M78.5361 856.43C177.371 1024.72 360.257 1137.7 569.531 1137.7V568.905L78.5361 856.43Z" fill="#F5CACA"/>
<path d="M78.361 281.905C28.895 366.225 0.536133 464.416 0.536133 569.229C0.536133 674.169 28.964 772.471 78.5416 856.86L569.536 569.435L78.361 281.905Z" fill="#F5CACA"/>
</svg>
