<svg width="32" height="32" viewBox="0 0 32 32" fill="none" xmlns="http://www.w3.org/2000/svg">
<path d="M13.9961 17.0067C14.4284 17.5846 14.98 18.0629 15.6134 18.4089C16.2468 18.755 16.9472 18.9608 17.6671 19.0123C18.3871 19.0639 19.1097 18.96 19.7859 18.7078C20.4622 18.4555 21.0762 18.0608 21.5865 17.5503L24.6066 14.5302C25.5235 13.5809 26.0308 12.3095 26.0193 10.9897C26.0079 9.66995 25.4785 8.4075 24.5453 7.47426C23.612 6.54102 22.3496 6.01166 21.0298 6.00019C19.7101 5.98872 18.4386 6.49606 17.4893 7.41295L15.7578 9.13438" stroke="#0C4E4E" stroke-width="2" stroke-linecap="round" stroke-linejoin="round"/>
<path d="M18.0234 14.9934C17.5911 14.4154 17.0395 13.9372 16.4061 13.5911C15.7727 13.2451 15.0723 13.0393 14.3524 12.9877C13.6325 12.9362 12.9099 13.04 12.2336 13.2923C11.5574 13.5446 10.9433 13.9393 10.433 14.4498L7.41295 17.4698C6.49606 18.4191 5.98872 19.6906 6.00019 21.0103C6.01166 22.3301 6.54102 23.5925 7.47426 24.5258C8.4075 25.459 9.66995 25.9884 10.9897 25.9999C12.3095 26.0113 13.5809 25.504 14.5302 24.5871L16.2517 22.8657" stroke="#0C4E4E" stroke-width="2" stroke-linecap="round" stroke-linejoin="round"/>
</svg>
