<svg width="87" height="92" viewBox="0 0 87 92" fill="none" xmlns="http://www.w3.org/2000/svg">
<mask id="mask0_29_1661" style="mask-type:luminance" maskUnits="userSpaceOnUse" x="0" y="34" width="63" height="38">
<path d="M62.5923 71.5275C53.7297 49.8171 7.47929 45.9374 3.35276 34.2843H3.35252C1.22095 37.944 0 42.2001 0 46.7411C0 60.4307 11.0973 71.5275 24.7866 71.5275H62.5923Z" fill="white"/>
</mask>
<g mask="url(#mask0_29_1661)">
<path d="M62.5923 71.5275C53.7297 49.8171 7.47929 45.9374 3.35276 34.2843H3.35252C1.22095 37.944 0 42.2001 0 46.7411C0 60.4307 11.0973 71.5275 24.7866 71.5275H62.5923Z" fill="url(#paint0_linear_29_1661)"/>
</g>
<path d="M3.34277 34.2975H3.34301C4.84005 38.5251 11.8819 41.7296 20.67 45.1329L30.3656 21.9674H24.7769C15.6284 21.9674 7.63768 26.9235 3.34277 34.2975Z" fill="#0C4E4E"/>
<mask id="mask1_29_1661" style="mask-type:luminance" maskUnits="userSpaceOnUse" x="20" y="0" width="63" height="46">
<path d="M20.6772 45.1397C43.9106 48.3193 70.3958 10.2058 82.5508 12.4581C80.447 8.78208 77.3722 5.59696 73.4391 3.32647C61.5842 -3.51834 46.4242 0.543816 39.58 12.3987L20.6772 45.1397Z" fill="white"/>
</mask>
<g mask="url(#mask1_29_1661)">
<path d="M20.6772 45.1397C43.9106 48.3193 70.3958 10.2058 82.5508 12.4581C80.447 8.78208 77.3722 5.59696 73.4391 3.32647C61.5842 -3.51834 46.4242 0.543816 39.58 12.3987L20.6772 45.1397Z" fill="url(#paint1_linear_29_1661)"/>
</g>
<path d="M82.5543 12.4406C78.1448 11.6236 71.8485 16.1197 64.5073 22.0281L79.7213 42.0079L82.5155 37.1681C87.0892 29.2457 86.7928 19.8473 82.5543 12.4406Z" fill="#0C4E4E"/>
<mask id="mask2_29_1661" style="mask-type:luminance" maskUnits="userSpaceOnUse" x="59" y="22" width="28" height="71">
<path d="M64.5095 22.0749H64.5089C50.1386 40.6061 69.9033 82.5998 61.8748 91.9999C66.1109 92.0165 70.407 90.9454 74.3394 88.6749C86.1944 81.8308 90.2565 66.6714 83.4123 54.8158L64.5095 22.0749Z" fill="white"/>
</mask>
<g mask="url(#mask2_29_1661)">
<path d="M64.5095 22.0749H64.5089C50.1386 40.6061 69.9033 82.5998 61.8748 91.9999C66.1109 92.0165 70.407 90.9454 74.3394 88.6749C86.1944 81.8308 90.2565 66.6714 83.4123 54.8158L64.5095 22.0749Z" fill="url(#paint2_linear_29_1661)"/>
</g>
<path d="M61.8748 91.965V91.9642C64.7878 88.5544 64.0417 80.8537 62.5955 71.5409L37.6855 74.7273L40.4803 79.5676C45.054 87.4902 53.342 91.9323 61.8748 91.965Z" fill="#0C4E4E"/>
<defs>
<linearGradient id="paint0_linear_29_1661" x1="60.2211" y1="75.6035" x2="4.89701" y2="49.9213" gradientUnits="userSpaceOnUse">
<stop stop-color="#0C4E4E"/>
<stop offset="1" stop-color="#99D420"/>
</linearGradient>
<linearGradient id="paint1_linear_29_1661" x1="18.3331" y1="41.0478" x2="68.2366" y2="5.97686" gradientUnits="userSpaceOnUse">
<stop stop-color="#0C4E4E"/>
<stop offset="1" stop-color="#99D420"/>
</linearGradient>
<linearGradient id="paint2_linear_29_1661" x1="69.2245" y1="22.0912" x2="74.6451" y2="82.8441" gradientUnits="userSpaceOnUse">
<stop stop-color="#0C4E4E"/>
<stop offset="1" stop-color="#99D420"/>
</linearGradient>
</defs>
</svg>
