<svg width="283" height="287" viewBox="0 0 283 287" fill="none" xmlns="http://www.w3.org/2000/svg">
<g opacity="0.9">
<mask id="mask0_29_1595" style="mask-type:luminance" maskUnits="userSpaceOnUse" x="0" y="107" width="196" height="117">
<path d="M195.143 223.055C167.588 155.532 23.7882 143.466 10.959 107.226H10.9576C4.33027 118.608 0.533203 131.843 0.533203 145.965C0.533203 188.54 35.0371 223.055 77.5992 223.055H195.143Z" fill="white"/>
</mask>
<g mask="url(#mask0_29_1595)">
<path opacity="0.16" d="M195.143 223.055C167.588 155.532 23.7882 143.466 10.959 107.226H10.9576C4.33027 118.608 0.533203 131.843 0.533203 145.965C0.533203 188.54 35.0371 223.055 77.5992 223.055H195.143Z" fill="url(#paint0_linear_29_1595)"/>
</g>
<path opacity="0.1" d="M10.958 107.225H10.9593C15.6133 120.369 37.5078 130.335 64.8301 140.922L94.9759 68.8751H77.5996C49.1557 68.8751 24.3106 84.2891 10.958 107.225Z" fill="#EEEEEE"/>
<mask id="mask1_29_1595" style="mask-type:luminance" maskUnits="userSpaceOnUse" x="64" y="0" width="194" height="142">
<path d="M64.8301 140.925C137.067 150.816 219.414 32.2778 257.205 39.2826C250.664 27.8498 241.104 17.9438 228.876 10.8823C192.017 -10.4056 144.884 2.22617 123.602 39.0998L64.8301 140.925Z" fill="white"/>
</mask>
<g mask="url(#mask1_29_1595)">
<path opacity="0.16" d="M64.8301 140.925C137.067 150.816 219.414 32.2778 257.205 39.2826C250.664 27.8498 241.104 17.9438 228.876 10.8823C192.017 -10.4056 144.884 2.22617 123.602 39.0998L64.8301 140.925Z" fill="url(#paint1_linear_29_1595)"/>
</g>
<path opacity="0.1" d="M257.204 39.2796C243.495 36.7385 223.919 50.7237 201.094 69.0993L248.396 131.238L257.084 116.184C271.306 91.5446 270.383 62.3131 257.204 39.2796Z" fill="#EEEEEE"/>
<mask id="mask2_29_1595" style="mask-type:luminance" maskUnits="userSpaceOnUse" x="184" y="69" width="87" height="218">
<path d="M201.094 69.1024H201.092C156.413 126.734 217.864 257.338 192.902 286.574C206.073 286.625 219.43 283.296 231.657 276.235C268.515 254.948 281.147 207.8 259.865 170.928L201.094 69.1024Z" fill="white"/>
</mask>
<g mask="url(#mask2_29_1595)">
<path opacity="0.16" d="M201.094 69.1024H201.092C156.413 126.734 217.864 257.338 192.902 286.574C206.073 286.625 219.43 283.296 231.657 276.235C268.515 254.948 281.147 207.8 259.865 170.928L201.094 69.1024Z" fill="url(#paint2_linear_29_1595)"/>
</g>
<path opacity="0.1" d="M192.902 286.574V286.572C201.959 275.967 199.639 252.017 195.143 223.055L117.694 232.965L126.384 248.017C140.604 272.657 166.373 286.473 192.902 286.574Z" fill="#EEEEEE"/>
</g>
<defs>
<linearGradient id="paint0_linear_29_1595" x1="187.771" y1="235.73" x2="15.741" y2="155.896" gradientUnits="userSpaceOnUse">
<stop stop-color="#E1E1DE"/>
<stop offset="1" stop-color="white"/>
</linearGradient>
<linearGradient id="paint1_linear_29_1595" x1="57.5422" y1="128.199" x2="212.731" y2="19.1689" gradientUnits="userSpaceOnUse">
<stop stop-color="#E1E1DE"/>
<stop offset="1" stop-color="white"/>
</linearGradient>
<linearGradient id="paint2_linear_29_1595" x1="215.753" y1="69.1514" x2="232.617" y2="258.099" gradientUnits="userSpaceOnUse">
<stop stop-color="#E1E1DE"/>
<stop offset="1" stop-color="white"/>
</linearGradient>
</defs>
</svg>
