<?xml version="1.0"?>
<svg width="193" height="64" xmlns="http://www.w3.org/2000/svg" xmlns:svg="http://www.w3.org/2000/svg">
 <mask height="27" id="mask0_2008_887" maskUnits="userSpaceOnUse" width="44" x="0" y="23">
  <path d="m43.56,49.79c-6.17,-15.11 -38.36,-17.81 -41.23,-25.92l0,0c-1.48,2.55 -2.33,5.51 -2.33,8.67c0,9.53 7.72,17.25 17.25,17.25l26.31,0z" fill="white" id="svg_1"/>
 </mask>
 <mask height="32" id="mask1_2008_887" maskUnits="userSpaceOnUse" width="44" x="14" y="0">
  <path d="m14.39,31.41c16.17,2.21 34.6,-24.31 43.06,-22.74c-1.47,-2.56 -3.61,-4.78 -6.34,-6.36c-8.25,-4.76 -18.8,-1.93 -23.57,6.32l-13.15,22.78z" fill="white" id="svg_2"/>
 </mask>
 <mask height="49" id="mask2_2008_887" maskUnits="userSpaceOnUse" width="20" x="41" y="15">
  <path d="m44.89,15.34l0,0c-10,12.9 3.75,42.12 -1.83,48.66c2.94,0.01 5.93,-0.73 8.67,-2.31c8.25,-4.77 11.08,-15.32 6.31,-23.57l-13.15,-22.78z" fill="white" id="svg_3"/>
 </mask>
 <defs>
  <linearGradient id="paint0_linear_2008_887" x1="0.96" x2="0.08" y1="1.11" y2="0.42">
   <stop stop-color="#0C4E4E"/>
   <stop offset="1" stop-color="#99D420"/>
  </linearGradient>
  <linearGradient id="paint1_linear_2008_887" x1="-0.04" x2="0.77" y1="0.91" y2="0.13">
   <stop stop-color="#0C4E4E"/>
   <stop offset="1" stop-color="#99D420"/>
  </linearGradient>
  <linearGradient id="paint2_linear_2008_887" x1="0.37" x2="0.56" y1="0" y2="0.87">
   <stop stop-color="#0C4E4E"/>
   <stop offset="1" stop-color="#99D420"/>
  </linearGradient>
 </defs>
 <g class="layer">
  <title>Layer 1</title>
  <g id="svg_14" mask="url(#mask0_2008_887)">
   <path d="m43.56,49.79c-6.17,-15.11 -38.36,-17.81 -41.23,-25.92l0,0c-1.48,2.55 -2.33,5.51 -2.33,8.67c0,9.53 7.72,17.25 17.25,17.25l26.31,0z" fill="url(#paint0_linear_2008_887)" id="svg_15"/>
  </g>
  <path d="m2.33,23.87l0,0c1.04,2.94 5.94,5.17 12.06,7.54l6.75,-16.12l-3.89,0c-6.37,0 -11.93,3.45 -14.92,8.58z" fill="#0C4E4E" id="svg_16"/>
  <g id="svg_17" mask="url(#mask1_2008_887)">
   <path d="m14.39,31.41c16.17,2.21 34.6,-24.31 43.06,-22.74c-1.47,-2.56 -3.61,-4.78 -6.34,-6.36c-8.25,-4.76 -18.8,-1.93 -23.57,6.32l-13.15,22.78z" fill="url(#paint1_linear_2008_887)" id="svg_18"/>
  </g>
  <path d="m57.45,8.67c-3.07,-0.57 -7.45,2.56 -12.56,6.67l10.58,13.9l1.95,-3.36c3.18,-5.52 2.97,-12.06 0.03,-17.21z" fill="#0C4E4E" id="svg_19"/>
  <g id="svg_20" mask="url(#mask2_2008_887)">
   <path d="m44.89,15.34l0,0c-10,12.9 3.75,42.12 -1.83,48.66c2.94,0.01 5.93,-0.73 8.67,-2.31c8.25,-4.77 11.08,-15.32 6.31,-23.57l-13.15,-22.78z" fill="url(#paint2_linear_2008_887)" id="svg_21"/>
  </g>
  <path d="m43.06,64l0,0c2.02,-2.37 1.5,-7.73 0.5,-14.21l-17.34,2.21l1.95,3.37c3.18,5.52 8.95,8.61 14.89,8.63z" fill="#0C4E4E" id="svg_22"/>
 </g>
</svg>